<?xml version="1.0" encoding="UTF-8" standalone="no"?>
<svg xmlns="http://www.w3.org/2000/svg" xmlns:xlink="http://www.w3.org/1999/xlink" width="300.00003" height="300.00003">
  <defs>
    <linearGradient xlink:href="#a" id="b" x1="259.99997" x2="560" y1="880.36218" y2="880.36218" gradientTransform="rotate(90 622.28685 416.25775)" gradientUnits="userSpaceOnUse"/>
    <linearGradient id="a">
      <stop offset="0" stop-color="#fff"/>
      <stop offset="1" stop-color="#fff" stop-opacity="0"/>
    </linearGradient>
  </defs>
  <g transform="translate(-2632.33428 -1374.68917)">
    <g transform="translate(2624.1519 1320.7183)">
      <path d="M58.1823781 53.97087c-27.6142 0-50 22.38576-50 50V303.9709c0 27.6142 22.3858 50 50 50h200.00004c27.6143 0 50-22.3858 50-50V103.97087c0-27.61424-22.3857-50-50-50h-200.00004z"/>
      <path fill="url(#b)" d="M308.18241 103.97087c0-27.614195-22.38576-50.000005-50-50.000005H58.182386c-27.6142 0-49.9999999 22.38581-49.9999999 50.000005v200.00004c0 27.6143 22.3857999 50 49.9999999 50H258.18241c27.61424 0 50-22.3857 50-50V103.97087z" opacity=".3"/>
    </g>
    <g fill="#fff" transform="translate(2209.9696 1216.7708) scale(.87638)">
      <path d="M551.05246 276.00656c68.44325-.005 136.88649-.005 205.33031 0-7.66856 7.4763-15.16067 15.11896-22.8639 22.56127-9.38612 9.09045-18.53558 18.40512-27.91318 27.50332-5.33465 5.30103-10.83113 10.44763-16.03252 15.87387-9.32286 9.16201-18.7169 18.26082-27.97344 27.48365-4.70614 4.06671-12.79633 3.91406-17.0492-.72866-31.2078-30.85866-62.29635-61.82942-93.49807-92.69345zm-2.32845 143.581c.0219-44.82797.0231-89.65593-.00061-134.4833 22.53049 22.19455 42.09503 42.7537 64.55432 65.01623-21.73937 23.52988-43.16256 46.33663-64.55371 69.46707zm208.75834.52941c-.0219-44.82797-.0231-89.65593.00061-134.4833-22.53049 22.19455-42.09503 42.7537-64.55432 65.01623 21.73937 23.52988 43.16256 46.33663 64.55371 69.46707z"/>
      <path d="m551.84792 426.70096 66.90259-71.27776c4.78524 4.56937 14.08947 12.9599 18.93859 17.46727 11.3842 10.13754 22.34163 9.98728 33.44047-.49433 4.41836-4.33324 12.39844-12.20321 16.82227-16.5311l65.03509 70.83532c-67.98933.006-133.14965.005-201.13901.0006z"/>
    </g>
  </g>
</svg>